<svg xmlns="http://www.w3.org/2000/svg" viewBox="0 0 512 512" role="img" aria-labelledby="title desc">
  <title id="title">Sweet Alba Absensi Logo</title>
  <desc id="desc">Logo lingkaran dengan pin lokasi dan tanda centang.</desc>
  <defs>
    <linearGradient id="bg" x1="0" y1="0" x2="1" y2="1">
      <stop offset="0%" stop-color="#0ea5e9" />
      <stop offset="100%" stop-color="#14b8a6" />
    </linearGradient>
  </defs>
  <rect width="512" height="512" rx="112" fill="url(#bg)" />
  <circle cx="256" cy="208" r="122" fill="#ffffff" fill-opacity="0.14" />
  <path fill="#ffffff" d="M256 96c-57.4 0-104 46.6-104 104 0 73.4 104 208 104 208s104-134.6 104-208c0-57.4-46.6-104-104-104Zm0 150c-25.4 0-46-20.6-46-46s20.6-46 46-46 46 20.6 46 46-20.6 46-46 46Z"/>
  <path fill="#ffffff" d="m222 331-38-38 28-28 10 10 78-78 28 28-106 106Z"/>
</svg>
